<?xml version="1.0" standalone="no"?>
<!DOCTYPE svg PUBLIC "-//W3C//DTD SVG 20010904//EN"
 "http://www.w3.org/TR/2001/REC-SVG-20010904/DTD/svg10.dtd">
<svg version="1.0" xmlns="http://www.w3.org/2000/svg"
 width="221.000000pt" height="221.000000pt" viewBox="0 0 221.000000 221.000000"
 preserveAspectRatio="xMidYMid meet">
<metadata>
Created by potrace 1.11, written by Peter Selinger 2001-2013
</metadata>
<g transform="translate(0.000000,221.000000) scale(0.100000,-0.100000)"
fill="#000000" stroke="none">
<path d="M1009 1848 c-1 -7 -1 -50 -1 -95 0 -56 -4 -83 -11 -84 -7 -1 -232 -2
-502 -3 l-490 -1 -3 -252 c-3 -273 -8 -238 57 -402 l20 -48 -27 -1 c-15 0 -33
0 -39 -1 -10 -1 -13 -58 -13 -251 l0 -250 252 2 252 3 -1 96 -1 96 504 0 504
0 0 -154 0 -153 253 2 252 3 0 245 1 245 -38 145 c-21 80 -38 151 -38 158 0 9
34 12 135 12 l135 0 0 249 c0 190 -3 250 -12 253 -7 2 -122 4 -254 3 -257 -1
-244 1 -372 -56 -23 -10 -47 -19 -52 -19 -6 0 -10 54 -10 135 l0 135 -250 0
c-193 0 -250 -3 -251 -12z"/>
</g>
</svg>
